<svg xmlns="http://www.w3.org/2000/svg" version="1.1" xmlns:xlink="http://www.w3.org/1999/xlink" xmlns:svgjs="http://svgjs.dev/svgjs" width="1440" height="800" preserveAspectRatio="none" viewBox="0 0 1440 560">
    <g mask="url(&quot;#SvgjsMask1016&quot;)" fill="none">
        <rect width="1440" height="720" x="0" y="0" fill="#0e2a47"></rect>
        <path d="M0 55.33L10 90.01L20 124.3L30 115.71L40 172.2L50 132.5L60 106.53L70 146.96L80 135.12L90 104.8L100 67.44L110 103.83L120 58.37L130 81.75L140 13.61L150 2.2L160 10.88L170 47.12L180 42.95L190 7.43L200 2.31L210 47L220 15.53L230 79.47L240 24.03L250 54.16L260 8.39L270 22.44L280 90.16L290 72.66L300 112.7L310 113.31L320 73.7L330 37.32L340 70.23L350 81.92L360 87.06L370 140.31L380 201.1L390 256.18L400 186.32L410 138.94L420 172.85L430 163.43L440 203.28L450 162.45L460 131.81L470 139.66L480 83.35L490 143.19L500 196.09L510 262.29L520 212.18L530 224.23L540 156.42L550 86.99L560 56.46L570 30.52L580 2.71L590 20.65L600 57.06L610 70.28L620 11.65L630 44.93L640 109.9L650 119.11L660 70.68L670 59.13L680 65.21L690 6.05L700 4.14L710 5.74L720 43.58L730 17.06L740 83.82L750 127.93L760 196.53L770 210.56L780 220.09L790 278.96L800 293.87L810 329.07L820 295.66L830 305.89L840 287.53L850 227.54L860 214.36L870 236.31L880 174.38L890 177.45L900 141.83L910 159.73L920 112.42L930 92.01L940 90.83L950 122.16L960 143.54L970 211.16L980 216.49L990 270.68L1000 209.39L1010 172.28L1020 156.74L1030 151.81L1040 198.83L1050 261.18L1060 195.14L1070 171.02L1080 202.3L1090 195.77L1100 143.66L1110 103.77L1120 50.68L1130 79.21L1140 88.69L1150 38.45L1160 2.31L1170 3.97L1180 22.93L1190 25.66L1200 34.54L1210 85.9L1220 71L1230 79.77L1240 17.11L1250 68.56L1260 135.9L1270 171.04L1280 179.15L1290 116.13L1300 77.81L1310 133.51L1320 88.63L1330 113.66L1340 98.25L1350 168.09L1360 179.15L1370 168.17L1380 208.24L1390 255.52L1400 320.61L1410 342.45L1420 369.98L1430 345.65L1440 355.73" stroke="#224b75" stroke-width="2"></path>
        <path d="M0 55.33L10 90.01L20 124.3L30 115.71L40 172.2L50 132.5L60 106.53L70 146.96L80 135.12L90 104.8L100 67.44L110 103.83L120 58.37L130 81.75L140 13.61L150 2.2L160 10.88L170 47.12L180 42.95L190 7.43L200 2.31L210 47L220 15.53L230 79.47L240 24.03L250 54.16L260 8.39L270 22.44L280 90.16L290 72.66L300 112.7L310 113.31L320 73.7L330 37.32L340 70.23L350 81.92L360 87.06L370 140.31L380 201.1L390 256.18L400 186.32L410 138.94L420 172.85L430 163.43L440 203.28L450 162.45L460 131.81L470 139.66L480 83.35L490 143.19L500 196.09L510 262.29L520 212.18L530 224.23L540 156.42L550 86.99L560 56.46L570 30.52L580 2.71L590 20.65L600 57.06L610 70.28L620 11.65L630 44.93L640 109.9L650 119.11L660 70.68L670 59.13L680 65.21L690 6.05L700 4.14L710 5.74L720 43.58L730 17.06L740 83.82L750 127.93L760 196.53L770 210.56L780 220.09L790 278.96L800 293.87L810 329.07L820 295.66L830 305.89L840 287.53L850 227.54L860 214.36L870 236.31L880 174.38L890 177.45L900 141.83L910 159.73L920 112.42L930 92.01L940 90.83L950 122.16L960 143.54L970 211.16L980 216.49L990 270.68L1000 209.39L1010 172.28L1020 156.74L1030 151.81L1040 198.83L1050 261.18L1060 195.14L1070 171.02L1080 202.3L1090 195.77L1100 143.66L1110 103.77L1120 50.68L1130 79.21L1140 88.69L1150 38.45L1160 2.31L1170 3.97L1180 22.93L1190 25.66L1200 34.54L1210 85.9L1220 71L1230 79.77L1240 17.11L1250 68.56L1260 135.9L1270 171.04L1280 179.15L1290 116.13L1300 77.81L1310 133.51L1320 88.63L1330 113.66L1340 98.25L1350 168.09L1360 179.15L1370 168.17L1380 208.24L1390 255.52L1400 320.61L1410 342.45L1420 369.98L1430 345.65L1440 355.73L1440 560L0 560z" fill="url(&quot;#SvgjsLinearGradient1017&quot;)"></path>
    </g>
    <defs>
        <mask id="SvgjsMask1016">
            <rect width="1440" height="720" fill="#ffffff"></rect>
        </mask>
        <linearGradient x1="50%" y1="0%" x2="50%" y2="100%" id="SvgjsLinearGradient1017">
            <stop stop-opacity="0.65" stop-color="#224b75" offset="0"></stop>
            <stop stop-opacity="0" stop-color="#508dcc" offset="0.8"></stop>
        </linearGradient>
    </defs>
</svg>